<svg xmlns="http://www.w3.org/2000/svg" viewBox="0 0 245.15 65.09"><defs><style>.a{fill:#35a8e0;}.b{isolation:isolate;}.c{fill:#1d1d1b;}.d{fill:#fff;}.e{fill:#0071bc;}.f{fill:#93c01f;}.g{fill:#7396c4;}</style></defs><circle class="a" cx="203.48" cy="38.81" r="26.28"/><g class="b"><g class="b"><path class="c" d="M69.49,27.66V46.9a2.23,2.23,0,0,1-2.34,2.48,2.16,2.16,0,0,1-2.28-1.91H64.8a6.37,6.37,0,0,1-5.06,2.11c-4.73,0-7.86-3.36-7.86-8.56s3.13-8.57,7.86-8.57a6.37,6.37,0,0,1,5,2.07h.07V27.66a2.33,2.33,0,1,1,4.65,0ZM64.84,41a4.09,4.09,0,0,0-4.15-4.32,4,4,0,0,0-4,4.32,4,4,0,0,0,4,4.31A4.08,4.08,0,0,0,64.84,41Z" transform="translate(0 0)"/><path class="c" d="M81.26,32.45c5.27,0,8.87,3.47,8.87,8.57s-3.6,8.56-8.87,8.56-8.84-3.5-8.84-8.56S76,32.45,81.26,32.45Zm0,12.88A4,4,0,0,0,85.37,41a4.1,4.1,0,1,0-8.19,0A4,4,0,0,0,81.26,45.33Z" transform="translate(0 0)"/><path class="c" d="M104.65,34.86a2.17,2.17,0,0,1-2.31,2.31c-3,0-4.63,1.33-4.63,4.87V46.9a2.33,2.33,0,1,1-4.65,0V35.1A2.33,2.33,0,1,1,97.71,35h.07a4.94,4.94,0,0,1,4.56-2.41A2.16,2.16,0,0,1,104.65,34.86Z" transform="translate(0 0)"/><path class="c" d="M131.92,39.62V46.9a2.33,2.33,0,1,1-4.66,0V40.17c0-2.28-.92-3.47-2.72-3.47s-3,1.43-3,3.91V46.9a2.33,2.33,0,1,1-4.66,0V40.17c0-2.28-.91-3.47-2.72-3.47s-2.92,1.43-2.92,3.91V46.9a2.33,2.33,0,1,1-4.66,0V35.1a2.36,2.36,0,0,1,4.63-.75h.06a5.75,5.75,0,0,1,8.88.41h.07a6.19,6.19,0,0,1,5.26-2.31C129.84,32.45,131.92,34.9,131.92,39.62Z" transform="translate(0 0)"/><path class="c" d="M143.54,49.58c-5.4,0-9-3.46-9-8.56s3.6-8.57,8.84-8.57c4.69,0,8.32,3.4,8.32,7.31V40a2.25,2.25,0,0,1-2.38,2.41h-10a4.08,4.08,0,0,0,4.24,3.13,4.79,4.79,0,0,0,3.54-1.39,2.16,2.16,0,0,1,1.53-.65,1.9,1.9,0,0,1,2,2,2.19,2.19,0,0,1-.48,1.36A8.42,8.42,0,0,1,143.54,49.58ZM139.3,39.25h8a3.79,3.79,0,0,0-3.91-2.79A3.92,3.92,0,0,0,139.3,39.25Z" transform="translate(0 0)"/><path class="c" d="M171.36,27.66V46.9A2.24,2.24,0,0,1,169,49.38a2.17,2.17,0,0,1-2.28-1.91h-.07a6.37,6.37,0,0,1-5.06,2.11c-4.73,0-7.85-3.36-7.85-8.56s3.12-8.57,7.85-8.57a6.37,6.37,0,0,1,5,2.07h.07V27.66a2.34,2.34,0,1,1,4.66,0ZM166.7,41a4.09,4.09,0,0,0-4.15-4.32A4,4,0,0,0,158.5,41a4,4,0,0,0,4.05,4.31A4.08,4.08,0,0,0,166.7,41Z" transform="translate(0 0)"/></g><g class="b"><path class="d" d="M199.38,45.6a2.06,2.06,0,0,1,2.31,2.18A2.13,2.13,0,0,1,199.38,50H186.76a2.41,2.41,0,0,1-2.55-2.55v-.62c0-4.72,2.21-7.47,8-9.11,3.26-.91,4.28-1.8,4.28-3.23,0-1.66-1.22-2.65-3.36-2.65a5.31,5.31,0,0,0-4.25,2.31,2.34,2.34,0,0,1-1.94,1,2.21,2.21,0,0,1-2.31-2.28,2.75,2.75,0,0,1,.47-1.57,9.57,9.57,0,0,1,8.1-3.77c5,0,8.15,2.69,8.15,6.87,0,3.74-1.76,5.74-7,7.17-3.85,1-5.17,2.18-5.48,4.11Z" transform="translate(0 0)"/><path class="d" d="M220.39,40.88a2.06,2.06,0,0,1,2.34,2.17,2.15,2.15,0,0,1-2.34,2.18h-.89v2.41a2.29,2.29,0,0,1-2.38,2.52,2.26,2.26,0,0,1-2.38-2.52V45.23h-9.28a2.28,2.28,0,0,1-2.55-2.38,2.77,2.77,0,0,1,.82-1.94l10.34-12a3,3,0,0,1,2.48-1.3,2.86,2.86,0,0,1,2.95,3.1V40.88Zm-5.65,0V34.25L209,40.88Z" transform="translate(0 0)"/></g></g><path class="e" d="M53.75,3h0A10.15,10.15,0,0,0,39.42,3L22.85,19.55,37.18,33.87,53.75,17.29A10.12,10.12,0,0,0,53.75,3Z" transform="translate(0 0)"/><path class="f" d="M22.58,48.47l14.6-14.6h0Z" transform="translate(0 0)"/><path class="g" d="M17.62,14.32a10.33,10.33,0,0,0-14.6,0H3a10.33,10.33,0,0,0,0,14.6H3l5.23,5.23,14.6-14.6Z" transform="translate(0 0)"/><rect class="a" x="12.39" y="23.88" width="20.65" height="20.26" transform="translate(-17.4 26.02) rotate(-45)"/><g class="b"><path d="M226.08,62.52a.44.44,0,1,1,.44.44A.42.42,0,0,1,226.08,62.52Z" transform="translate(0 0)"/><path d="M236,52.59v10c0,.2-.09.32-.25.32a.28.28,0,0,1-.29-.32V61.28h0a3.39,3.39,0,0,1-3.21,1.77,3.75,3.75,0,0,1,0-7.49,3.39,3.39,0,0,1,3.21,1.77h0V52.59a.28.28,0,0,1,.29-.31C235.86,52.28,236,52.4,236,52.59Zm-.54,6.72a3.18,3.18,0,1,0-3.18,3.23A3.06,3.06,0,0,0,235.41,59.31Z" transform="translate(0 0)"/><path d="M245.15,59.16a.32.32,0,0,1-.32.32h-6.54a3.07,3.07,0,0,0,3.27,3.06,3.23,3.23,0,0,0,2.57-1.17.28.28,0,0,1,.24-.12.27.27,0,0,1,.27.25.32.32,0,0,1-.08.2,3.75,3.75,0,0,1-3,1.35,3.75,3.75,0,1,1-.09-7.49A3.49,3.49,0,0,1,245.15,59.16ZM238.31,59h6.31a3.17,3.17,0,0,0-6.31,0Z" transform="translate(0 0)"/></g></svg>